<mxfile host="app.diagrams.net" modified="2021-04-26T00:54:44.981Z" agent="5.0 (Windows NT 6.3; Win64; x64) AppleWebKit/537.36 (KHTML, like Gecko) Chrome/89.0.4389.128 Safari/537.36" etag="TW1dPJmD4BW3Hr9iLgna" version="14.6.6" type="github">
  <diagram id="C5RBs43oDa-KdzZeNtuy" name="Page-1">
    <mxGraphModel dx="413" dy="187" grid="0" gridSize="13" guides="1" tooltips="1" connect="1" arrows="1" fold="1" page="0" pageScale="1" pageWidth="827" pageHeight="1169" background="#CCCCCC" math="0" shadow="0">
      <root>
        <mxCell id="WIyWlLk6GJQsqaUBKTNV-0" />
        <mxCell id="WIyWlLk6GJQsqaUBKTNV-1" parent="WIyWlLk6GJQsqaUBKTNV-0" />
        <mxCell id="WIyWlLk6GJQsqaUBKTNV-2" value="" style="rounded=0;html=1;jettySize=auto;orthogonalLoop=1;fontSize=11;endArrow=block;endFill=0;endSize=8;strokeWidth=1;shadow=0;labelBackgroundColor=none;edgeStyle=orthogonalEdgeStyle;" parent="WIyWlLk6GJQsqaUBKTNV-1" edge="1">
          <mxGeometry relative="1" as="geometry">
            <mxPoint x="220" y="120" as="sourcePoint" />
            <mxPoint x="220" y="170" as="targetPoint" />
          </mxGeometry>
        </mxCell>
        <mxCell id="WIyWlLk6GJQsqaUBKTNV-5" value="No" style="edgeStyle=orthogonalEdgeStyle;rounded=0;html=1;jettySize=auto;orthogonalLoop=1;fontSize=11;endArrow=block;endFill=0;endSize=8;strokeWidth=1;shadow=0;labelBackgroundColor=none;" parent="WIyWlLk6GJQsqaUBKTNV-1" edge="1">
          <mxGeometry y="10" relative="1" as="geometry">
            <mxPoint as="offset" />
            <mxPoint x="270" y="210" as="sourcePoint" />
            <mxPoint x="320" y="210" as="targetPoint" />
          </mxGeometry>
        </mxCell>
        <mxCell id="frUZIwSJsrgJIYTaQLDv-0" value="Actor" style="shape=umlActor;verticalLabelPosition=bottom;verticalAlign=top;html=1;outlineConnect=0;fillColor=#d80073;strokeColor=#A50040;fontColor=#ffffff;" vertex="1" parent="WIyWlLk6GJQsqaUBKTNV-1">
          <mxGeometry x="80" y="340" width="30" height="60" as="geometry" />
        </mxCell>
        <mxCell id="frUZIwSJsrgJIYTaQLDv-2" value="" style="endArrow=classic;html=1;fillColor=#d80073;strokeColor=#A50040;" edge="1" parent="WIyWlLk6GJQsqaUBKTNV-1">
          <mxGeometry width="50" height="50" relative="1" as="geometry">
            <mxPoint x="120" y="370" as="sourcePoint" />
            <mxPoint x="240" y="325" as="targetPoint" />
          </mxGeometry>
        </mxCell>
        <mxCell id="frUZIwSJsrgJIYTaQLDv-3" value="" style="endArrow=classic;html=1;fillColor=#d80073;strokeColor=#A50040;" edge="1" parent="WIyWlLk6GJQsqaUBKTNV-1">
          <mxGeometry width="50" height="50" relative="1" as="geometry">
            <mxPoint x="122" y="369.76" as="sourcePoint" />
            <mxPoint x="242" y="369.76" as="targetPoint" />
            <Array as="points">
              <mxPoint x="174" y="369.76" />
            </Array>
          </mxGeometry>
        </mxCell>
        <mxCell id="frUZIwSJsrgJIYTaQLDv-5" value="" style="endArrow=classic;html=1;fillColor=#d80073;strokeColor=#A50040;" edge="1" parent="WIyWlLk6GJQsqaUBKTNV-1">
          <mxGeometry width="50" height="50" relative="1" as="geometry">
            <mxPoint x="120" y="370" as="sourcePoint" />
            <mxPoint x="240" y="420" as="targetPoint" />
          </mxGeometry>
        </mxCell>
        <mxCell id="frUZIwSJsrgJIYTaQLDv-6" value="Add Jobs" style="ellipse;whiteSpace=wrap;html=1;" vertex="1" parent="WIyWlLk6GJQsqaUBKTNV-1">
          <mxGeometry x="242" y="404" width="120" height="33" as="geometry" />
        </mxCell>
        <mxCell id="frUZIwSJsrgJIYTaQLDv-7" value="Add Jobseekers/ Employee" style="ellipse;whiteSpace=wrap;html=1;" vertex="1" parent="WIyWlLk6GJQsqaUBKTNV-1">
          <mxGeometry x="246" y="353.5" width="120" height="33" as="geometry" />
        </mxCell>
        <mxCell id="frUZIwSJsrgJIYTaQLDv-8" value="Maintain Website" style="ellipse;whiteSpace=wrap;html=1;" vertex="1" parent="WIyWlLk6GJQsqaUBKTNV-1">
          <mxGeometry x="244" y="307" width="120" height="33" as="geometry" />
        </mxCell>
        <mxCell id="frUZIwSJsrgJIYTaQLDv-24" value="Actor" style="shape=umlActor;verticalLabelPosition=bottom;verticalAlign=top;html=1;outlineConnect=0;fillColor=#d80073;strokeColor=#A50040;fontColor=#ffffff;" vertex="1" parent="WIyWlLk6GJQsqaUBKTNV-1">
          <mxGeometry x="102" y="600" width="30" height="60" as="geometry" />
        </mxCell>
        <mxCell id="frUZIwSJsrgJIYTaQLDv-25" value="" style="endArrow=classic;html=1;fillColor=#d80073;strokeColor=#A50040;" edge="1" parent="WIyWlLk6GJQsqaUBKTNV-1">
          <mxGeometry width="50" height="50" relative="1" as="geometry">
            <mxPoint x="142" y="630" as="sourcePoint" />
            <mxPoint x="262" y="585" as="targetPoint" />
          </mxGeometry>
        </mxCell>
        <mxCell id="frUZIwSJsrgJIYTaQLDv-26" value="" style="endArrow=classic;html=1;fillColor=#d80073;strokeColor=#A50040;" edge="1" parent="WIyWlLk6GJQsqaUBKTNV-1">
          <mxGeometry width="50" height="50" relative="1" as="geometry">
            <mxPoint x="142" y="629.8" as="sourcePoint" />
            <mxPoint x="254" y="629.8" as="targetPoint" />
            <Array as="points" />
          </mxGeometry>
        </mxCell>
        <mxCell id="frUZIwSJsrgJIYTaQLDv-27" value="" style="endArrow=classic;html=1;fillColor=#d80073;strokeColor=#A50040;" edge="1" parent="WIyWlLk6GJQsqaUBKTNV-1">
          <mxGeometry width="50" height="50" relative="1" as="geometry">
            <mxPoint x="142" y="630" as="sourcePoint" />
            <mxPoint x="262" y="680" as="targetPoint" />
          </mxGeometry>
        </mxCell>
        <mxCell id="frUZIwSJsrgJIYTaQLDv-28" value="View Jobs" style="ellipse;whiteSpace=wrap;html=1;" vertex="1" parent="WIyWlLk6GJQsqaUBKTNV-1">
          <mxGeometry x="264" y="664" width="120" height="33" as="geometry" />
        </mxCell>
        <mxCell id="frUZIwSJsrgJIYTaQLDv-29" value="Login/Logout" style="ellipse;whiteSpace=wrap;html=1;" vertex="1" parent="WIyWlLk6GJQsqaUBKTNV-1">
          <mxGeometry x="268" y="613.5" width="120" height="33" as="geometry" />
        </mxCell>
        <mxCell id="frUZIwSJsrgJIYTaQLDv-30" value="Register" style="ellipse;whiteSpace=wrap;html=1;" vertex="1" parent="WIyWlLk6GJQsqaUBKTNV-1">
          <mxGeometry x="266" y="567" width="120" height="33" as="geometry" />
        </mxCell>
        <mxCell id="frUZIwSJsrgJIYTaQLDv-33" value="Actor" style="shape=umlActor;verticalLabelPosition=bottom;verticalAlign=top;html=1;outlineConnect=0;fillColor=#d80073;strokeColor=#A50040;fontColor=#ffffff;" vertex="1" parent="WIyWlLk6GJQsqaUBKTNV-1">
          <mxGeometry x="707" y="670" width="30" height="60" as="geometry" />
        </mxCell>
        <mxCell id="frUZIwSJsrgJIYTaQLDv-34" value="" style="endArrow=classic;html=1;fillColor=#d80073;strokeColor=#A50040;" edge="1" parent="WIyWlLk6GJQsqaUBKTNV-1">
          <mxGeometry width="50" height="50" relative="1" as="geometry">
            <mxPoint x="690" y="696" as="sourcePoint" />
            <mxPoint x="397" y="579" as="targetPoint" />
          </mxGeometry>
        </mxCell>
        <mxCell id="frUZIwSJsrgJIYTaQLDv-35" value="" style="endArrow=classic;html=1;fillColor=#d80073;strokeColor=#A50040;" edge="1" parent="WIyWlLk6GJQsqaUBKTNV-1">
          <mxGeometry width="50" height="50" relative="1" as="geometry">
            <mxPoint x="143" y="632" as="sourcePoint" />
            <mxPoint x="258" y="736" as="targetPoint" />
            <Array as="points" />
          </mxGeometry>
        </mxCell>
        <mxCell id="frUZIwSJsrgJIYTaQLDv-36" value="" style="endArrow=classic;html=1;fillColor=#d80073;strokeColor=#A50040;" edge="1" parent="WIyWlLk6GJQsqaUBKTNV-1">
          <mxGeometry width="50" height="50" relative="1" as="geometry">
            <mxPoint x="690" y="696" as="sourcePoint" />
            <mxPoint x="393" y="630" as="targetPoint" />
          </mxGeometry>
        </mxCell>
        <mxCell id="frUZIwSJsrgJIYTaQLDv-37" value="Upload Cv" style="ellipse;whiteSpace=wrap;html=1;" vertex="1" parent="WIyWlLk6GJQsqaUBKTNV-1">
          <mxGeometry x="264" y="718" width="120" height="33" as="geometry" />
        </mxCell>
        <mxCell id="frUZIwSJsrgJIYTaQLDv-38" value="Feedback" style="ellipse;whiteSpace=wrap;html=1;" vertex="1" parent="WIyWlLk6GJQsqaUBKTNV-1">
          <mxGeometry x="437" y="838" width="120" height="33" as="geometry" />
        </mxCell>
        <mxCell id="frUZIwSJsrgJIYTaQLDv-39" value="Apply Jobs" style="ellipse;whiteSpace=wrap;html=1;" vertex="1" parent="WIyWlLk6GJQsqaUBKTNV-1">
          <mxGeometry x="268" y="772" width="120" height="33" as="geometry" />
        </mxCell>
        <mxCell id="frUZIwSJsrgJIYTaQLDv-40" value="View Application" style="ellipse;whiteSpace=wrap;html=1;" vertex="1" parent="WIyWlLk6GJQsqaUBKTNV-1">
          <mxGeometry x="437" y="737" width="120" height="33" as="geometry" />
        </mxCell>
        <mxCell id="frUZIwSJsrgJIYTaQLDv-41" value="View Cv" style="ellipse;whiteSpace=wrap;html=1;" vertex="1" parent="WIyWlLk6GJQsqaUBKTNV-1">
          <mxGeometry x="437" y="784" width="120" height="33" as="geometry" />
        </mxCell>
        <mxCell id="frUZIwSJsrgJIYTaQLDv-42" value="&lt;font color=&quot;#ffffff&quot;&gt;Reviewer/Employer&lt;/font&gt;" style="text;html=1;align=center;verticalAlign=middle;resizable=0;points=[];autosize=1;strokeColor=none;" vertex="1" parent="WIyWlLk6GJQsqaUBKTNV-1">
          <mxGeometry x="665" y="754" width="114" height="18" as="geometry" />
        </mxCell>
        <mxCell id="frUZIwSJsrgJIYTaQLDv-43" value="" style="endArrow=classic;html=1;fillColor=#d80073;strokeColor=#A50040;" edge="1" parent="WIyWlLk6GJQsqaUBKTNV-1">
          <mxGeometry width="50" height="50" relative="1" as="geometry">
            <mxPoint x="689" y="697" as="sourcePoint" />
            <mxPoint x="559" y="857" as="targetPoint" />
          </mxGeometry>
        </mxCell>
        <mxCell id="frUZIwSJsrgJIYTaQLDv-44" value="" style="endArrow=classic;html=1;fillColor=#d80073;strokeColor=#A50040;" edge="1" parent="WIyWlLk6GJQsqaUBKTNV-1">
          <mxGeometry width="50" height="50" relative="1" as="geometry">
            <mxPoint x="688" y="697" as="sourcePoint" />
            <mxPoint x="560" y="801" as="targetPoint" />
          </mxGeometry>
        </mxCell>
        <mxCell id="frUZIwSJsrgJIYTaQLDv-45" value="" style="endArrow=classic;html=1;fillColor=#d80073;strokeColor=#A50040;" edge="1" parent="WIyWlLk6GJQsqaUBKTNV-1">
          <mxGeometry width="50" height="50" relative="1" as="geometry">
            <mxPoint x="687" y="696" as="sourcePoint" />
            <mxPoint x="559" y="754" as="targetPoint" />
          </mxGeometry>
        </mxCell>
        <mxCell id="frUZIwSJsrgJIYTaQLDv-46" value="&lt;font color=&quot;#ffffff&quot;&gt;Job Seeker&lt;/font&gt;" style="text;html=1;align=center;verticalAlign=middle;resizable=0;points=[];autosize=1;strokeColor=none;" vertex="1" parent="WIyWlLk6GJQsqaUBKTNV-1">
          <mxGeometry x="79" y="675" width="71" height="18" as="geometry" />
        </mxCell>
        <mxCell id="frUZIwSJsrgJIYTaQLDv-47" value="&lt;font color=&quot;#ffffff&quot;&gt;Admin&lt;/font&gt;" style="text;html=1;align=center;verticalAlign=middle;resizable=0;points=[];autosize=1;strokeColor=none;" vertex="1" parent="WIyWlLk6GJQsqaUBKTNV-1">
          <mxGeometry x="73" y="421" width="44" height="18" as="geometry" />
        </mxCell>
        <mxCell id="frUZIwSJsrgJIYTaQLDv-48" value="" style="endArrow=classic;html=1;fillColor=#d80073;strokeColor=#A50040;" edge="1" parent="WIyWlLk6GJQsqaUBKTNV-1">
          <mxGeometry width="50" height="50" relative="1" as="geometry">
            <mxPoint x="142" y="631" as="sourcePoint" />
            <mxPoint x="264" y="786" as="targetPoint" />
          </mxGeometry>
        </mxCell>
      </root>
    </mxGraphModel>
  </diagram>
</mxfile>
